<?xml version="1.0" encoding="iso-8859-1" ?>
<svg width="262" height="58" viewBox="0 0 262 58" fill="none" xmlns="http://www.w3.org/2000/svg">
<g clip-path="url(#clip0_828_55592)">
<path d="M41.4688 30.8007V34.4924L43.4758 28.9463C42.82 29.5625 42.1472 30.1562 41.4688 30.8007Z" fill="white"/>
<path d="M34.8987 30.456V29.1387L34.1016 31.2588L34.8987 30.456Z" fill="white"/>
<path d="M26.6396 45.0869C26.4198 45.0714 26.2069 45.0032 26.019 44.888C25.831 44.7729 25.6735 44.6143 25.5598 44.4255C25.2472 43.935 25.0896 43.3617 25.1075 42.7803C25.1111 42.4758 25.1471 42.1726 25.2149 41.8757C25.2868 41.5037 25.3909 41.1386 25.5259 40.7846L27.3859 35.849C26.8771 36.4144 26.3852 36.9797 25.9103 37.415C25.4354 37.8504 24.9436 38.2914 24.5139 38.6362V32.8752C26.5379 30.7269 28.2396 28.8386 29.6021 27.3008C30.4246 26.4474 31.1595 25.5136 31.7957 24.5136L33.2034 20.6635H34.8995V18.4021C34.8995 18.2325 34.7525 17.9159 34.7525 17.7463C34.741 16.9379 34.8477 16.1323 35.0691 15.3548C35.3661 14.7247 35.8685 14.2143 36.4938 13.9075V5.73242H20.025V13.8962C20.6607 14.3396 21.1616 14.95 21.4723 15.6601C21.678 16.5559 21.7842 17.4717 21.7889 18.3908V39.5238C21.7792 40.3337 21.4963 41.1166 20.9861 41.7457C20.6525 42.2319 19.6857 42.5654 18.7246 42.5654C16.7911 42.5654 15.8244 41.4347 15.8244 39.5238V17.735C15.8086 16.871 15.923 16.0095 16.1636 15.1795C16.4583 14.6367 16.9041 14.1909 17.4469 13.8962V5.73242H0.169607L0 13.8962C0.673879 14.2159 1.1941 14.7889 1.44731 15.4905C1.66842 16.2758 1.77505 17.0888 1.76391 17.9046V37.1267C1.75437 39.3412 2.02217 41.5482 2.56107 43.6962C2.9477 45.3343 3.78374 46.8322 4.97514 48.0211C6.15282 49.2799 7.55669 50.3059 9.11356 51.0458C10.0838 51.4972 11.1051 51.8294 12.1552 52.0352C13.3203 52.2633 14.4985 52.4181 15.683 52.4988H18.2441C22.0829 52.4988 25.1245 52.0352 27.3463 51.0458C30.4162 49.6211 32.4911 47.5462 33.4635 45.1548C34.4135 42.7068 34.8986 40.1031 34.8939 37.4772L33.39 39.1168C29.7717 43.1308 27.5272 45.0869 26.6396 45.0869Z" fill="white"/>
<path d="M74.7523 13.8965C74.2353 11.869 73.1274 10.0409 71.5693 8.64432C70.2658 7.42659 68.6521 6.59136 66.9051 6.23025C64.6858 5.87996 62.441 5.71732 60.1944 5.74404H40.0224V13.8965C40.3344 14.0589 40.6092 14.2846 40.8292 14.5591C41.0491 14.8336 41.2095 15.1509 41.3001 15.4908C41.3001 16.141 41.4697 17.1077 41.4697 18.0519V24.2312C42.1821 23.615 42.8379 23.1005 43.4202 22.6313C45.6308 20.9352 47.3494 20.0815 48.5536 20.0815C49.0918 20.0718 49.6119 20.2749 50.001 20.6469C50.194 20.8152 50.3488 21.0228 50.4551 21.2559C50.5614 21.4889 50.6167 21.7419 50.6172 21.9981C50.5023 22.8696 50.2643 23.7205 49.9105 24.5252C49.7466 24.9775 49.6165 25.3224 49.5204 25.5824L45.8908 35.5836C45.7777 35.9511 45.6308 36.3299 45.4668 36.7539C45.3028 37.1779 45.2124 37.3871 45.2124 37.4154C45.199 37.5957 45.2241 37.7768 45.2859 37.9468C45.3198 38.0768 45.3933 38.1277 45.4668 38.1277C45.7947 38.1277 48.4462 35.6119 49.9897 34.4133V39.8068C48.9615 41.1075 47.7481 42.2503 46.3883 43.199C44.4548 44.3919 42.8266 44.9798 41.5489 44.9798C41.001 44.994 40.4609 44.8487 39.9941 44.5615V51.5267H57.2884V43.5099C56.9762 43.3518 56.7025 43.127 56.4866 42.8516C56.2707 42.5761 56.1179 42.2566 56.039 41.9156C56.039 41.4294 55.7224 40.4626 55.7224 39.3545C55.7224 39.1849 55.8694 38.727 55.8694 38.3878H61.3251C66.1306 38.3878 69.6358 37.2571 71.8803 35.3462C73.0935 34.2177 73.9785 32.7817 74.4414 31.1908C75.0262 29.2631 75.4053 27.279 75.5721 25.2715V21.0822C75.5839 18.663 75.3087 16.2509 74.7523 13.8965ZM61.1837 23.5076C61.1984 24.5301 61.094 25.5508 60.8728 26.5492C60.8027 27.1578 60.5205 27.7223 60.0756 28.1435C59.5188 28.5618 58.8385 28.7826 58.1421 28.771C57.8798 28.8428 57.6137 28.8994 57.3449 28.9407C57.0284 28.9407 56.5195 28.771 55.8976 28.771V15.3438H56.8587C59.759 15.3438 61.1837 17.1077 61.1837 20.2963V23.5076Z" fill="white"/>
<path d="M45.2972 37.8051C45.291 37.6921 45.291 37.5789 45.2972 37.4659C45.2908 37.4399 45.2908 37.4127 45.2972 37.3867C45.2972 37.3302 45.3424 37.2454 45.3933 37.121L45.546 36.7309L45.5856 36.6348C45.7325 36.256 45.8626 35.9111 45.9643 35.5719L49.5826 25.6047C49.6448 25.4294 49.7296 25.1863 49.837 24.8923L49.9671 24.5362C50.0406 24.3439 50.1028 24.18 50.148 24.0386C50.1932 23.8973 50.2554 23.739 50.3063 23.592C50.4928 23.1092 50.6126 22.6033 50.6625 22.0882C50.6614 21.8633 50.6112 21.6414 50.5155 21.438C50.5155 21.438 50.5155 21.3815 50.4759 21.3475C50.375 21.1788 50.2513 21.0247 50.1084 20.8896C49.9306 20.7217 49.7237 20.5876 49.4978 20.4938C49.2764 20.4068 49.0404 20.3627 48.8024 20.3638C48.064 20.4084 47.3451 20.6191 46.6993 20.9801C46.5636 21.0479 46.4223 21.1214 46.2809 21.2062C45.4069 21.7057 44.5733 22.2727 43.7877 22.9023C43.4824 23.1341 43.1545 23.3941 42.821 23.6768C42.4874 23.9595 42.1143 24.2422 41.7355 24.5927C39.7831 26.285 37.3709 28.5898 34.4989 31.507C34.4612 31.542 34.4118 31.5614 34.3604 31.5614C34.309 31.5614 34.2595 31.542 34.2219 31.507C34.1938 31.481 34.1744 31.447 34.1663 31.4096C34.1582 31.3721 34.1618 31.3331 34.1766 31.2978L38.055 20.9688H33.5774L32.2148 24.6945C32.1875 24.7636 32.1534 24.8299 32.1131 24.8923C32.0735 24.9658 32.017 25.045 31.9548 25.1411C31.6212 25.616 30.9654 26.4244 29.9873 27.5382C29.3033 28.3184 28.5344 29.1777 27.6976 30.0993C26.8609 31.0208 25.9507 31.948 24.9444 32.9996V38.2856C25.0687 38.1839 25.1931 38.0765 25.3175 37.9634C25.5606 37.7542 25.798 37.5394 26.0355 37.3245C26.2729 37.1041 26.5104 36.8609 26.7592 36.6009C27.0079 36.3408 27.251 36.0355 27.5054 35.7698C27.5431 35.7348 27.5926 35.7154 27.6439 35.7154C27.6953 35.7154 27.7448 35.7348 27.7824 35.7698C27.8144 35.7968 27.8366 35.8335 27.8458 35.8743C27.855 35.9152 27.8506 35.9578 27.8333 35.9959L25.9733 40.9259C25.945 40.9994 25.9281 41.0502 25.9168 41.0898L25.8602 41.2481C25.7829 41.4871 25.7206 41.7307 25.6737 41.9774C25.6454 42.1357 25.6115 42.2884 25.6002 42.4354C25.5895 42.5671 25.5895 42.6994 25.6002 42.8311C25.5817 43.1212 25.6046 43.4124 25.668 43.6961C25.6755 43.7367 25.6869 43.7764 25.7019 43.8148C25.767 44.0155 25.8603 44.2058 25.979 44.3802C26.0158 44.4314 26.0554 44.4804 26.0977 44.5272C26.1362 44.5732 26.1778 44.6167 26.2221 44.6572C26.4003 44.8379 26.6412 44.9431 26.8948 44.9512C27.1405 44.9211 27.3752 44.8318 27.5789 44.6911C27.7946 44.5605 28.0023 44.417 28.2008 44.2615C30.1069 42.6786 31.877 40.9387 33.4926 39.0602C35.3017 37.0588 37.0487 35.2063 38.7334 33.5027C40.4182 31.7991 42.0408 30.2481 43.6011 28.8498C43.6196 28.831 43.6416 28.8161 43.6658 28.8059C43.6901 28.7957 43.7162 28.7904 43.7425 28.7904C43.7688 28.7904 43.7949 28.7957 43.8191 28.8059C43.8434 28.8161 43.8654 28.831 43.8838 28.8498C43.9082 28.877 43.9244 28.9106 43.9304 28.9467C43.9364 28.9827 43.932 29.0197 43.9177 29.0534L40.4578 38.6079C40.2542 39.1733 40.0846 39.6425 39.9546 40.0496C39.8316 40.3998 39.7278 40.7565 39.6436 41.1181C39.6436 41.1916 39.6041 41.2651 39.5871 41.3386C39.5701 41.4121 39.5871 41.4799 39.5419 41.5591C39.4729 41.9016 39.4369 42.2499 39.4345 42.5993C39.4283 42.9106 39.4841 43.22 39.5984 43.5095L39.6549 43.6339C39.7584 43.848 39.9024 44.04 40.079 44.1993C40.1354 44.2512 40.1959 44.2985 40.2599 44.3406C40.3262 44.3892 40.3961 44.4327 40.4691 44.4707C40.8787 44.6838 41.336 44.7889 41.7977 44.7759C42.5202 44.7564 43.2338 44.611 43.9064 44.3463C44.0365 44.301 44.1722 44.2502 44.3022 44.1936C45.0744 43.8673 45.8193 43.4797 46.5297 43.0346C47.2024 42.5441 47.8497 42.0195 48.4689 41.463C49.043 40.9463 49.5691 40.3786 50.0406 39.7669V34.8483L45.2972 37.8051ZM47.7283 36.2956C48.5367 35.5945 49.4243 34.82 50.1141 34.2942C50.1491 34.2653 50.193 34.2493 50.2384 34.249C50.2915 34.249 50.3424 34.2696 50.3804 34.3066C50.4184 34.3435 50.4405 34.3939 50.442 34.4469V39.8517C50.4408 39.8952 50.4248 39.9371 50.3967 39.9704C49.8927 40.6282 49.3246 41.2342 48.7007 41.7796C48.0738 42.3475 47.4171 42.8816 46.7332 43.3795C46.0111 43.8362 45.2551 44.2369 44.4718 44.5781L44.0591 44.7364C43.3371 45.0167 42.5719 45.1698 41.7977 45.1887C41.2758 45.1959 40.7605 45.0715 40.2995 44.8268C40.2152 44.7813 40.134 44.7303 40.0564 44.6742C39.981 44.6226 39.9092 44.5659 39.8415 44.5046C39.6278 44.3129 39.4548 44.0803 39.3327 43.8205C39.3037 43.7719 39.2791 43.7208 39.2592 43.6678C39.1313 43.3324 39.0699 42.9752 39.0783 42.6163C39.0804 42.2364 39.1202 41.8576 39.197 41.4856C39.2097 41.4056 39.2267 41.3263 39.2479 41.2481L39.2988 41.022C39.3812 40.6531 39.4831 40.2889 39.6041 39.9308C39.7398 39.4955 39.9094 39.0093 40.1072 38.4722L43.2902 29.6583C41.9277 30.9077 40.503 32.2759 39.0331 33.7628C37.3596 35.4513 35.6183 37.3 33.8092 39.3089C32.1733 41.2051 30.3824 42.9619 28.4552 44.5611C28.2492 44.7206 28.034 44.8679 27.8107 45.0021C27.5458 45.1799 27.2407 45.2887 26.9231 45.3187C26.5695 45.3089 26.2334 45.1631 25.9846 44.9116L25.832 44.7533L25.6906 44.5837C25.549 44.3767 25.4385 44.1501 25.3627 43.9109C25.3627 43.8714 25.3627 43.8261 25.3231 43.7696C25.2369 43.4624 25.195 43.1445 25.1988 42.8255C25.1909 42.6767 25.1909 42.5276 25.1988 42.3788C25.1988 42.2318 25.2496 42.0679 25.2836 41.8926C25.3396 41.6255 25.4152 41.3628 25.5097 41.1068L25.5662 40.9372C25.5662 40.8693 25.6115 40.8128 25.6228 40.7732L27.1153 36.8157L27.0588 36.8723C26.81 37.138 26.5669 37.3867 26.3238 37.6185L25.5945 38.2687C25.3571 38.4722 25.1309 38.6701 24.9104 38.834C24.8754 38.8629 24.8315 38.8789 24.7861 38.8793C24.7603 38.8793 24.7349 38.8741 24.7112 38.8641C24.6875 38.8541 24.666 38.8394 24.6481 38.821C24.6302 38.8025 24.6161 38.7807 24.6068 38.7567C24.5975 38.7327 24.5931 38.7071 24.5938 38.6814V32.9317C24.5927 32.8799 24.6108 32.8296 24.6447 32.7904C25.6586 31.7162 26.5895 30.7117 27.4376 29.777C28.2913 28.8329 29.0488 27.9792 29.699 27.2216C30.6601 26.0909 31.3103 25.322 31.6325 24.8528C31.7004 24.7566 31.7513 24.6831 31.7852 24.6266C31.8191 24.5701 31.8417 24.5248 31.853 24.4966L33.2551 20.6578C33.2661 20.6201 33.2882 20.5865 33.3184 20.5613C33.3486 20.5361 33.3856 20.5205 33.4247 20.5165H38.3207C38.343 20.511 38.3663 20.511 38.3885 20.5165C38.4136 20.5246 38.4366 20.5378 38.4564 20.5553C38.4761 20.5728 38.492 20.5941 38.5031 20.6179C38.5142 20.6418 38.5204 20.6677 38.5211 20.694C38.5218 20.7203 38.5171 20.7465 38.5073 20.7709L34.8607 30.512C37.4614 27.8661 39.6436 25.8026 41.4697 24.2309C41.8542 23.903 42.2104 23.592 42.5609 23.3093C42.9114 23.0267 43.2393 22.744 43.5503 22.5235C44.3533 21.8961 45.2018 21.3292 46.0887 20.8274L46.524 20.6013C47.2189 20.2152 47.9919 19.9911 48.7855 19.9455C49.074 19.9422 49.3602 19.996 49.6279 20.1038C49.8984 20.2152 50.1458 20.3763 50.3572 20.5787C50.5333 20.7425 50.6822 20.9333 50.7981 21.144L50.8603 21.2571C50.9768 21.5146 51.0366 21.7942 51.0356 22.0768C50.9861 22.6346 50.8586 23.1827 50.6568 23.7051C50.6116 23.8464 50.555 23.9991 50.4985 24.163C50.442 24.327 50.3685 24.5079 50.3119 24.6662L50.1819 25.0224C50.0858 25.2937 50.001 25.5142 49.9275 25.7234L46.3205 35.6907C46.2187 36.0412 46.0831 36.3917 45.9361 36.7761L45.8965 36.8666C45.84 37.0136 45.7891 37.1549 45.7438 37.268C45.7114 37.3321 45.6831 37.3982 45.659 37.4659C45.6527 37.5619 45.6527 37.6582 45.659 37.7542C45.6602 37.805 45.6718 37.855 45.693 37.9012C45.693 37.9012 45.693 37.9012 45.693 37.9408V37.9804C46.3933 37.4509 47.0651 36.8848 47.7056 36.2843L47.7283 36.2956ZM50.0179 34.837C49.3961 35.3345 48.6498 35.9677 47.96 36.5839C46.8802 37.5224 45.9304 38.3478 45.6704 38.3478H45.6364C45.589 38.3406 45.5431 38.3253 45.5007 38.3026C45.4814 38.2953 45.464 38.2837 45.4499 38.2687C45.3777 38.2088 45.3263 38.1277 45.3029 38.0369L50.0179 34.837Z" fill="white"/>
<path d="M199.413 52.4761V38.4496H202.466V40.8693H202.523C202.866 40.108 203.388 39.4408 204.044 38.9245C204.754 38.4395 205.598 38.1867 206.458 38.2008V41.7174C206.368 41.7059 206.277 41.7059 206.186 41.7174H205.864C205.468 41.7194 205.079 41.8163 204.728 42C204.37 42.1965 204.036 42.4337 203.733 42.7067C203.47 42.927 203.235 43.1775 203.032 43.453C202.907 43.5949 202.819 43.766 202.777 43.9505V52.4761H199.413ZM193.285 52.4761L193.07 51.2662C192.436 51.7067 191.753 52.0728 191.035 52.3574C190.287 52.6302 189.496 52.7625 188.7 52.7475C188.132 52.76 187.568 52.6541 187.043 52.4365C186.59 52.2522 186.184 51.9681 185.856 51.6054C185.543 51.2605 185.301 50.857 185.144 50.4182C184.976 49.974 184.891 49.5024 184.895 49.0274C184.869 48.2903 185.038 47.5594 185.384 46.9083C185.73 46.2571 186.242 45.7089 186.868 45.3187C188.18 44.4424 190.204 43.8488 192.94 43.5208V42.3392C192.954 42.1016 192.91 41.8641 192.811 41.6474C192.713 41.4306 192.563 41.2412 192.375 41.0955C191.946 40.7934 191.429 40.6404 190.905 40.6601C190.233 40.6252 189.568 40.8097 189.011 41.1859C188.558 41.5246 188.159 41.9308 187.829 42.3901L185.67 40.7449C185.9 40.3476 186.201 39.9952 186.557 39.7047C186.951 39.3806 187.382 39.1036 187.841 38.8793C188.318 38.6363 188.82 38.4467 189.339 38.3139C189.85 38.1859 190.378 38.1325 190.905 38.1556C191.724 38.1541 192.54 38.2625 193.33 38.4779C193.967 38.6472 194.551 38.976 195.026 39.4333C195.492 39.9218 195.824 40.5213 195.993 41.1746C196.219 42.0379 196.324 42.9284 196.304 43.8205V50.4804C196.303 50.8317 196.322 51.1828 196.361 51.532C196.393 51.8617 196.465 52.1864 196.575 52.4987L193.285 52.4761ZM192.94 45.7653C192.375 45.8671 191.809 45.9858 191.244 46.1102C190.725 46.2265 190.219 46.3951 189.735 46.6133C189.316 46.7947 188.943 47.067 188.643 47.4105C188.358 47.75 188.209 48.1831 188.225 48.626C188.212 48.8485 188.246 49.0712 188.325 49.2797C188.404 49.4881 188.526 49.6776 188.683 49.8359C188.997 50.1264 189.414 50.2809 189.842 50.2656C190.127 50.2654 190.41 50.2156 190.679 50.1186C190.968 50.0207 191.248 49.8978 191.515 49.7511C191.785 49.613 192.042 49.4523 192.284 49.2705C192.533 49.0896 192.737 48.9257 192.923 48.7843L192.94 45.7653ZM182.679 38.4496V52.4761H179.603V50.9666C178.956 51.4079 178.284 51.8119 177.591 52.1765C176.881 52.5538 176.088 52.7481 175.284 52.7418C173.876 52.7418 172.836 52.3235 172.152 51.4754C171.424 50.4865 171.062 49.2755 171.129 48.0494V38.4383H174.476V47.5688C174.407 48.25 174.557 48.9352 174.905 49.5249C175.066 49.7065 175.266 49.8484 175.491 49.9396C175.715 50.0308 175.958 50.0689 176.2 50.0507C176.868 50.0705 177.527 49.8978 178.099 49.5532C178.553 49.2847 178.966 48.9535 179.326 48.5695V38.4496H182.679ZM169.11 40.4453C168.715 40.4453 168.319 40.4453 167.923 40.4849C167.579 40.4946 167.244 40.594 166.951 40.7732C167.179 41.1006 167.359 41.4584 167.488 41.8361C167.641 42.2912 167.713 42.7695 167.703 43.2495C167.712 43.8723 167.599 44.491 167.369 45.0699C167.145 45.6268 166.795 46.1242 166.346 46.5229C165.871 46.9524 165.31 47.2761 164.701 47.4727C163.957 47.7077 163.18 47.8203 162.4 47.8062C161.775 47.7973 161.151 47.8427 160.534 47.9419C160.031 48.0324 159.782 48.2755 159.782 48.6712C159.782 49.067 160.008 49.2988 160.466 49.4232C161.021 49.5668 161.589 49.6539 162.162 49.6832L164.367 49.8189C165.121 49.8573 165.867 49.998 166.583 50.2373C167.231 50.4532 167.814 50.8284 168.279 51.3284C168.774 51.9287 169.02 52.6951 168.969 53.4711C168.963 53.9955 168.827 54.5102 168.573 54.9693C168.282 55.499 167.877 55.9568 167.386 56.3092C166.772 56.7438 166.087 57.0672 165.362 57.2647C164.418 57.5238 163.441 57.6456 162.462 57.6265C160.911 57.6878 159.365 57.4019 157.939 56.7898C157.435 56.592 157.004 56.2462 156.701 55.798C156.398 55.3499 156.238 54.8204 156.243 54.2796C156.233 53.8906 156.311 53.5043 156.469 53.1489C156.61 52.8418 156.812 52.5667 157.063 52.3404C157.299 52.1291 157.573 51.9642 157.871 51.8542C158.161 51.747 158.467 51.6915 158.776 51.6903V51.6111C158.587 51.4872 158.389 51.3794 158.182 51.2888C157.943 51.1726 157.714 51.0364 157.498 50.8818C157.269 50.7194 157.077 50.5115 156.933 50.2712C156.77 49.9902 156.691 49.6684 156.706 49.344C156.701 49.0117 156.789 48.6844 156.961 48.3999C157.129 48.1257 157.332 47.8748 157.566 47.6536C157.781 47.4391 158.02 47.2494 158.278 47.0882C158.471 46.9701 158.676 46.8716 158.889 46.7943C158.329 46.3423 157.834 45.8153 157.419 45.2282C156.993 44.5904 156.78 43.8347 156.808 43.0686C156.81 42.4543 156.929 41.846 157.159 41.2764C157.397 40.6857 157.757 40.1521 158.216 39.7103C158.703 39.2272 159.279 38.8432 159.912 38.5796C160.679 38.2889 161.495 38.1488 162.315 38.1669C162.945 38.1716 163.571 38.2844 164.163 38.5005C164.751 38.6976 165.296 39.0046 165.769 39.405C166.096 38.9686 166.539 38.6319 167.047 38.4326C167.691 38.2014 168.377 38.1108 169.059 38.1669L169.11 40.4453ZM164.587 42.9837C164.592 42.6783 164.535 42.375 164.419 42.0923C164.304 41.8095 164.132 41.5531 163.915 41.3386C163.707 41.1201 163.455 40.947 163.177 40.8303C162.899 40.7135 162.599 40.6556 162.298 40.6601C161.975 40.6477 161.653 40.7014 161.351 40.8181C161.05 40.9348 160.776 41.1119 160.545 41.3386C160.111 41.776 159.867 42.3674 159.867 42.9837C159.867 43.6002 160.111 44.1915 160.545 44.6289C160.776 44.8549 161.05 45.0311 161.352 45.1468C161.653 45.2625 161.975 45.3153 162.298 45.3017C162.599 45.3073 162.898 45.2504 163.177 45.1346C163.455 45.0189 163.706 44.8467 163.915 44.6289C164.134 44.416 164.307 44.1599 164.423 43.8768C164.539 43.5936 164.595 43.2896 164.587 42.9837ZM161.676 52.2104C161.291 52.1995 160.908 52.2589 160.545 52.3856C160.282 52.4838 160.038 52.6252 159.821 52.804C159.646 52.9415 159.509 53.1229 159.426 53.3298C159.361 53.4878 159.327 53.6566 159.324 53.8273C159.318 54.0849 159.392 54.3379 159.537 54.5509C159.682 54.7638 159.89 54.926 160.132 55.0146C161.069 55.3283 162.058 55.457 163.044 55.3933C163.504 55.4046 163.964 55.3455 164.407 55.2181C164.724 55.1255 165.025 54.9843 165.3 54.7997C165.497 54.6669 165.661 54.491 165.78 54.2852C165.87 54.1483 165.922 53.9905 165.933 53.8273C165.918 53.6356 165.843 53.4535 165.718 53.3072C165.529 53.0789 165.289 52.8987 165.017 52.7814C164.6 52.5899 164.159 52.4549 163.705 52.38C163.038 52.258 162.36 52.2031 161.681 52.216L161.676 52.2104ZM153.846 52.4761H150.499V38.4496H153.846V52.4761ZM150.499 32.7282H153.846V35.8603H150.499V32.7282ZM141.702 38.4496V33.808H145.049V38.4496H147.802V41.1463H145.049V49.0613C145.03 49.2038 145.047 49.3488 145.098 49.483C145.15 49.6172 145.234 49.7366 145.343 49.8302C145.624 49.9857 145.944 50.0564 146.264 50.0338C146.523 50.0338 146.781 50.0034 147.033 49.9433C147.293 49.8755 147.548 49.8189 147.802 49.768V52.5157L146.496 52.6853C146.083 52.7249 145.637 52.7475 145.173 52.7475C143.929 52.7475 143.047 52.4648 142.516 51.8825C141.954 51.2254 141.669 50.3766 141.719 49.5136V41.1463H139.774V38.4496H141.702ZM126.595 45.4657C126.581 44.4425 126.72 43.423 127.008 42.441C127.26 41.6166 127.669 40.8487 128.212 40.1796C128.728 39.5498 129.385 39.0502 130.129 38.721C131.771 38.0428 133.615 38.0428 135.257 38.721C136 39.0516 136.656 39.551 137.173 40.1796C137.715 40.849 138.122 41.617 138.372 42.441C138.921 44.42 138.921 46.5113 138.372 48.4903C138.122 49.3144 137.715 50.0823 137.173 50.7518C136.653 51.3771 135.998 51.8759 135.257 52.2104C133.615 52.8885 131.771 52.8885 130.129 52.2104C129.387 51.8773 128.731 51.3782 128.212 50.7518C127.669 50.0827 127.26 49.3148 127.008 48.4903C126.721 47.5082 126.582 46.4888 126.595 45.4657ZM135.443 45.4657C135.443 43.8827 135.217 42.718 134.771 41.9831C134.541 41.6426 134.232 41.3637 133.87 41.1708C133.507 40.9779 133.103 40.8771 132.693 40.8771C132.282 40.8771 131.878 40.9779 131.516 41.1708C131.154 41.3637 130.844 41.6426 130.615 41.9831C130.163 42.718 129.942 43.8827 129.942 45.4657C129.942 47.0487 130.163 48.2077 130.615 48.9426C130.844 49.2831 131.154 49.562 131.516 49.7549C131.878 49.9478 132.282 50.0486 132.693 50.0486C133.103 50.0486 133.507 49.9478 133.87 49.7549C134.232 49.562 134.541 49.2831 134.771 48.9426C135.219 48.2077 135.443 47.0487 135.443 45.4657ZM111.297 52.4761V32.9995H118.42C119.373 32.9909 120.323 33.1049 121.247 33.3388C122.039 33.5322 122.78 33.8905 123.424 34.3903C124.019 34.8732 124.49 35.4916 124.798 36.1938C125.139 37.0193 125.305 37.907 125.284 38.8001C125.304 39.6968 125.139 40.5881 124.798 41.4177C124.495 42.1243 124.023 42.7456 123.424 43.2269C122.783 43.7168 122.048 44.069 121.264 44.2615C120.341 44.498 119.39 44.6121 118.437 44.6007H115.045V52.4761H111.297ZM115.017 41.5817H117.991C118.577 41.5958 119.163 41.5311 119.732 41.3894C120.148 41.2932 120.536 41.0995 120.863 40.8241C121.127 40.5887 121.323 40.2858 121.428 39.9478C121.639 39.1896 121.639 38.388 121.428 37.6298C121.321 37.2924 121.126 36.9898 120.863 36.7535C120.534 36.4804 120.147 36.2869 119.732 36.1882C119.162 36.0491 118.577 35.9845 117.991 35.9959H115.017V41.5817ZM252.857 17.4183C252.896 18.8713 253.19 19.9115 253.75 20.5334C253.999 20.8266 254.309 21.0616 254.659 21.2218C255.009 21.382 255.389 21.4635 255.774 21.4606C256.418 21.4941 257.057 21.3304 257.606 20.9914C258.086 20.6475 258.521 20.2448 258.9 19.7928L261.331 21.3023C260.75 22.2462 259.91 23.0036 258.912 23.4846C257.82 23.9609 256.637 24.1924 255.446 24.163C254.596 24.175 253.755 23.9993 252.981 23.6485C252.259 23.3069 251.621 22.8086 251.115 22.1899C250.586 21.5057 250.193 20.7266 249.956 19.8946C249.665 18.9151 249.522 17.8974 249.532 16.8756C249.522 15.8537 249.665 14.836 249.956 13.8565C250.197 13.0185 250.605 12.2377 251.155 11.5612C251.674 10.9347 252.329 10.4357 253.072 10.1026C253.879 9.75003 254.752 9.5746 255.633 9.5881C256.477 9.57071 257.314 9.75278 258.075 10.1195C258.768 10.4552 259.379 10.9374 259.867 11.5329C260.374 12.1409 260.758 12.8418 260.998 13.5965C261.249 14.3861 261.377 15.21 261.377 16.0388V17.4183H252.857ZM258.256 15.1569C258.272 14.3364 258 13.5362 257.487 12.8954C257.235 12.6392 256.934 12.4357 256.603 12.2968C256.271 12.1579 255.916 12.0863 255.556 12.0863C255.197 12.0863 254.841 12.1579 254.51 12.2968C254.178 12.4357 253.878 12.6392 253.626 12.8954C253.115 13.5374 252.843 14.3367 252.857 15.1569H258.256ZM247.13 23.9086H244.303L244.139 22.3934C243.614 22.9197 243.014 23.3655 242.358 23.7164C241.731 24.0317 241.036 24.1907 240.334 24.18C239.481 24.2033 238.637 24.0087 237.88 23.6146C237.177 23.2246 236.574 22.6746 236.122 22.009C235.632 21.2671 235.278 20.4439 235.076 19.578C234.833 18.5807 234.715 17.5571 234.726 16.5307C234.725 15.6716 234.846 14.8168 235.087 13.9922C235.313 13.197 235.679 12.4484 236.167 11.7817C236.639 11.1399 237.243 10.6061 237.937 10.2156C238.673 9.82067 239.499 9.62573 240.334 9.65029C240.643 9.65217 240.951 9.69398 241.25 9.77467C241.578 9.85734 241.899 9.96508 242.211 10.0969C242.52 10.2303 242.814 10.3971 243.087 10.5944C243.332 10.7708 243.55 10.9801 243.737 11.2163H243.788V4.40943H247.13V23.9086ZM243.794 13.4721C243.444 13.1629 243.066 12.8884 242.663 12.6523C242.224 12.4053 241.726 12.2804 241.222 12.2905C240.767 12.2705 240.314 12.3677 239.907 12.5726C239.5 12.7774 239.153 13.0833 238.898 13.4608C238.303 14.488 238.023 15.6679 238.095 16.8529C238.023 18.038 238.303 19.2179 238.898 20.2451C239.153 20.6226 239.5 20.9284 239.907 21.1333C240.314 21.3382 240.767 21.4353 241.222 21.4154C241.531 21.422 241.84 21.382 242.137 21.2966C242.369 21.2229 242.591 21.1223 242.799 20.997C242.983 20.8844 243.155 20.7538 243.313 20.6069C243.472 20.4552 243.638 20.3118 243.811 20.1772L243.794 13.4721ZM229.253 23.9086L229.038 22.6761C228.405 23.1187 227.722 23.485 227.003 23.7673C226.256 24.042 225.464 24.1762 224.668 24.163C224.1 24.1723 223.537 24.0666 223.011 23.8521C222.56 23.6589 222.156 23.3718 221.824 23.0097C221.522 22.6605 221.285 22.2604 221.123 21.8281C220.964 21.3818 220.884 20.9112 220.886 20.4373C220.856 19.7033 221.019 18.9744 221.358 18.3228C221.697 17.6712 222.201 17.1197 222.819 16.7229C224.131 15.8523 226.153 15.2549 228.886 14.9307V13.7322C228.9 13.4953 228.855 13.2586 228.757 13.0428C228.658 12.827 228.508 12.6386 228.32 12.494C227.891 12.1932 227.374 12.0422 226.85 12.0644C226.18 12.0294 225.517 12.214 224.962 12.5901C224.506 12.9253 224.105 13.3297 223.775 13.7887L221.615 12.1435C221.848 11.7458 222.15 11.3934 222.508 11.1033C222.9 10.7779 223.329 10.5008 223.786 10.2778C224.266 10.0479 224.768 9.86793 225.284 9.74075C225.797 9.61646 226.323 9.56132 226.85 9.57679C227.671 9.58261 228.488 9.69279 229.281 9.9047C229.919 10.0731 230.503 10.402 230.977 10.8602C231.44 11.349 231.769 11.9487 231.933 12.6015C232.159 13.4628 232.263 14.3514 232.244 15.2417V21.8563C232.244 22.2125 232.244 22.563 232.3 22.9079C232.336 23.2389 232.408 23.565 232.515 23.8803L229.253 23.9086ZM228.897 17.1865C228.331 17.2996 227.766 17.4126 227.229 17.537C226.71 17.6516 226.204 17.8203 225.72 18.0402C225.301 18.2215 224.927 18.4915 224.623 18.8317C224.341 19.1728 224.194 19.6052 224.21 20.0472C224.195 20.2703 224.228 20.4939 224.306 20.7034C224.384 20.9129 224.505 21.1035 224.662 21.2627C224.977 21.5522 225.394 21.7065 225.821 21.6924C226.108 21.6913 226.393 21.6416 226.664 21.5454C226.952 21.4471 227.231 21.3261 227.5 21.1836C227.766 21.0369 228.023 20.8745 228.269 20.6974C228.507 20.5165 228.722 20.3582 228.897 20.2112V17.1865ZM218.647 23.9086H215.82L215.662 22.3934C215.135 22.9184 214.536 23.3641 213.881 23.7164C213.253 24.0317 212.559 24.1907 211.857 24.18C211.004 24.204 210.16 24.0094 209.403 23.6146C208.698 23.226 208.096 22.6757 207.645 22.009C207.151 21.2687 206.795 20.4451 206.593 19.578C206.35 18.5807 206.233 17.5571 206.243 16.5307C206.244 15.6713 206.368 14.8165 206.61 13.9922C206.834 13.1973 207.198 12.4487 207.685 11.7817C208.158 11.1409 208.761 10.6072 209.454 10.2156C210.192 9.8212 211.02 9.62632 211.857 9.65029C212.166 9.65217 212.474 9.69398 212.773 9.77467C213.101 9.85821 213.422 9.96592 213.734 10.0969C214.042 10.229 214.334 10.3959 214.605 10.5944C214.85 10.7693 215.069 10.9788 215.255 11.2163H215.306V4.40943H218.653L218.647 23.9086ZM215.3 13.4721C214.951 13.1627 214.572 12.8881 214.169 12.6523C213.728 12.4043 213.228 12.2793 212.722 12.2905C212.268 12.2704 211.816 12.3675 211.41 12.5725C211.004 12.7774 210.658 13.0833 210.404 13.4608C209.806 14.4873 209.525 15.6673 209.596 16.8529C209.525 18.0386 209.806 19.2186 210.404 20.2451C210.658 20.6225 211.004 20.9284 211.41 21.1334C211.816 21.3383 212.268 21.4354 212.722 21.4154C213.033 21.422 213.344 21.382 213.643 21.2966C213.874 21.2218 214.096 21.1213 214.305 20.997C214.487 20.8844 214.658 20.7537 214.814 20.6069C214.972 20.4599 215.136 20.3186 215.311 20.1772L215.3 13.4721ZM203.297 23.9086H199.951V9.85947H203.297V23.9086ZM199.951 4.12109H203.297V7.24752H199.951V4.12109ZM194.45 13.5343C194.09 13.1609 193.696 12.8221 193.274 12.5223C192.856 12.2151 192.35 12.0506 191.832 12.0531C191.327 12.0137 190.823 12.1451 190.402 12.4262C190.253 12.5464 190.135 12.6993 190.055 12.8729C189.976 13.0465 189.938 13.2361 189.944 13.4269C189.944 13.6175 189.992 13.8051 190.084 13.9722C190.176 14.1392 190.308 14.2803 190.469 14.3823C190.873 14.6534 191.308 14.8755 191.764 15.0438C192.279 15.2417 192.838 15.4452 193.46 15.6544C194.06 15.8538 194.631 16.1333 195.156 16.4855C195.674 16.8444 196.115 17.3039 196.451 17.8367C196.824 18.4689 197.006 19.1952 196.977 19.9285C196.994 20.5802 196.858 21.2268 196.581 21.8168C196.326 22.3278 195.959 22.7744 195.507 23.1228C195.016 23.4944 194.454 23.7618 193.856 23.9086C193.185 24.0781 192.496 24.1617 191.804 24.1574C190.747 24.1732 189.702 23.9224 188.768 23.428C187.858 22.9137 187.083 22.191 186.506 21.3193L188.768 19.6232C189.162 20.1578 189.63 20.6337 190.159 21.0366C190.696 21.4442 191.356 21.6575 192.03 21.6415C192.55 21.6668 193.062 21.5087 193.477 21.1949C193.654 21.0645 193.797 20.894 193.896 20.6975C193.994 20.5009 194.044 20.2839 194.043 20.0642C194.045 19.8706 193.999 19.6796 193.907 19.5093C193.815 19.3391 193.68 19.1953 193.517 19.0918C193.116 18.8125 192.681 18.5864 192.222 18.419C191.713 18.2211 191.148 18.0063 190.526 17.7858C189.928 17.5709 189.359 17.2842 188.83 16.9321C188.315 16.5926 187.875 16.1521 187.535 15.6374C187.164 15.04 186.981 14.3446 187.01 13.6417C187 13.0405 187.128 12.445 187.383 11.9004C187.627 11.4036 187.978 10.9671 188.412 10.6227C188.854 10.2732 189.356 10.0069 189.893 9.83686C190.462 9.65748 191.055 9.56597 191.651 9.56548C192.58 9.56353 193.5 9.7441 194.359 10.0969C195.223 10.4395 195.989 10.9912 196.587 11.7025L194.45 13.5343ZM178.422 23.9086V9.85947H181.497V12.2622H181.548C181.898 11.5102 182.421 10.8515 183.075 10.34C183.79 9.84772 184.638 9.58539 185.506 9.5881V13.1272C185.418 13.1097 185.329 13.1003 185.24 13.099H184.912C184.498 13.098 184.091 13.2052 183.73 13.4099C183.37 13.6031 183.034 13.8384 182.73 14.111C182.466 14.334 182.229 14.5863 182.023 14.8629C181.901 15.0087 181.813 15.1809 181.769 15.366V23.9086H178.422ZM167.414 17.4183C167.456 18.8694 167.752 19.9078 168.302 20.5334C168.551 20.826 168.862 21.0606 169.211 21.2208C169.561 21.3809 169.941 21.4628 170.326 21.4606C170.972 21.4938 171.612 21.3302 172.163 20.9914C172.642 20.646 173.077 20.2435 173.458 19.7928L175.895 21.3023C175.316 22.246 174.478 23.0035 173.481 23.4846C172.389 23.9609 171.206 24.1924 170.015 24.163C169.165 24.1756 168.324 23.9999 167.55 23.6485C166.827 23.3083 166.189 22.8098 165.684 22.1899C165.147 21.5066 164.744 20.7277 164.497 19.8946C164.208 18.9148 164.067 17.8971 164.079 16.8756C164.067 15.854 164.208 14.8363 164.497 13.8565C164.747 13.0177 165.162 12.2372 165.718 11.5612C166.236 10.9361 166.89 10.4373 167.629 10.1026C168.438 9.75091 169.313 9.57554 170.196 9.5881C171.003 9.56972 171.804 9.73527 172.537 10.0722C173.271 10.4092 173.918 10.9087 174.43 11.5329C174.933 12.1437 175.317 12.8438 175.561 13.5965C175.811 14.3864 175.937 15.2103 175.934 16.0388V17.4183H167.414ZM172.808 15.1569C172.826 14.337 172.556 13.5368 172.045 12.8954C171.792 12.6392 171.492 12.4357 171.16 12.2968C170.829 12.1579 170.473 12.0863 170.114 12.0863C169.754 12.0863 169.399 12.1579 169.067 12.2968C168.736 12.4357 168.435 12.6392 168.183 12.8954C167.672 13.5374 167.401 14.3367 167.414 15.1569H172.808ZM151.714 9.86512H155.056L157.379 19.3857H157.43L159.805 9.88774H163.151L159.132 23.9086H155.627L151.714 9.86512ZM149.362 23.9086H146.021V9.85947H149.362V23.9086ZM146.021 4.12109H149.362V7.24752H146.021V4.12109ZM130.666 23.9086V9.85947H133.742V11.369C134.389 10.9278 135.061 10.5238 135.754 10.1591C136.464 9.78199 137.257 9.58769 138.061 9.59375C138.646 9.54921 139.233 9.64089 139.776 9.86161C140.32 10.0823 140.805 10.4261 141.193 10.8658C141.921 11.8567 142.283 13.0696 142.216 14.2975V23.9086H138.869V14.7724C138.939 14.0912 138.788 13.4057 138.44 12.8163C138.278 12.6346 138.076 12.4927 137.851 12.4015C137.625 12.3103 137.382 12.2723 137.139 12.2905C136.472 12.2717 135.812 12.4443 135.24 12.788C134.788 13.058 134.375 13.389 134.013 13.7717V23.9086H130.666ZM122.949 4.40943H126.675V16.6042C126.709 17.8252 126.504 19.0411 126.07 20.1829C125.722 21.0773 125.166 21.8759 124.447 22.5122C123.752 23.1055 122.936 23.5397 122.056 23.7842C120.205 24.2871 118.253 24.2871 116.402 23.7842C115.523 23.5403 114.709 23.106 114.016 22.5122C113.29 21.8784 112.725 21.0796 112.371 20.1829C111.932 19.0422 111.725 17.8258 111.76 16.6042V4.40943H115.486V16.7681C115.486 18.3511 115.797 19.4574 116.419 20.0868C117.233 20.7031 118.225 21.0367 119.246 21.0367C120.266 21.0367 121.259 20.7031 122.073 20.0868C122.691 19.4611 123 18.3549 123 16.7681L122.949 4.40943Z" fill="white"/>
<path d="M93.2905 0H92.6855V58H93.2905V0Z" fill="white"/>
</g>
<defs>
<clipPath id="clip0_828_55592">
<rect width="261.331" height="58" fill="white"/>
</clipPath>
</defs>
</svg>
